<svg width="18" height="18" viewBox="0 0 18 18" fill="none" xmlns="http://www.w3.org/2000/svg">
<path d="M17.2068 7.88928H13.8663L11.4677 1.062C11.3225 0.648725 10.8698 0.431326 10.4565 0.57656C10.0432 0.721754 9.82585 1.17451 9.97105 1.58781L12.1849 7.88924H5.81509L8.02895 1.58781C8.17415 1.17451 7.95683 0.721754 7.54352 0.57656C7.13033 0.431326 6.6775 0.648725 6.5323 1.062L4.13368 7.88928H0.793188C0.35513 7.88928 0 8.24437 0 8.68247C0 9.12053 0.35513 9.47566 0.793188 9.47566H1.01051L2.95414 16.5694C3.09964 17.1004 3.58229 17.4686 4.1329 17.4686H13.9211C14.4746 17.4686 14.959 17.0966 15.1019 16.5618L16.9949 9.47562H17.2068C17.6449 9.47566 18 9.12053 18 8.68247C18 8.24441 17.6449 7.88928 17.2068 7.88928ZM6.40101 14.8757C6.40101 15.3137 6.04588 15.6689 5.60783 15.6689C5.16977 15.6689 4.81464 15.3137 4.81464 14.8757V10.8482C4.81464 10.4101 5.16977 10.055 5.60783 10.055C6.04588 10.055 6.40101 10.4101 6.40101 10.8482V14.8757ZM9.79317 14.8757C9.79317 15.3137 9.43804 15.6689 8.99998 15.6689C8.56192 15.6689 8.20679 15.3137 8.20679 14.8757V10.8482C8.20679 10.4101 8.56192 10.055 8.99998 10.055C9.43804 10.055 9.79317 10.4101 9.79317 10.8482V14.8757ZM13.1853 14.8757C13.1853 15.3137 12.8302 15.6689 12.3921 15.6689C11.9541 15.6689 11.5989 15.3137 11.5989 14.8757V10.8482C11.5989 10.4101 11.9541 10.055 12.3921 10.055C12.8302 10.055 13.1853 10.4101 13.1853 10.8482V14.8757Z" fill="#616161"/>
</svg>
