<svg width="14" height="12" viewBox="0 0 14 12" fill="none" xmlns="http://www.w3.org/2000/svg">
<path d="M12.4724 1.43065C12.1562 1.11433 11.7808 0.86339 11.3676 0.692185C10.9544 0.520981 10.5115 0.432861 10.0643 0.432861C9.61704 0.432861 9.17417 0.520981 8.76098 0.692185C8.3478 0.86339 7.97239 1.11433 7.65621 1.43065L7.00002 2.08684L6.34383 1.43065C5.70516 0.79199 4.83895 0.433192 3.93574 0.433192C3.03253 0.433192 2.16631 0.79199 1.52765 1.43065C0.88898 2.06932 0.530182 2.93553 0.530182 3.83874C0.530182 4.74195 0.88898 5.60816 1.52765 6.24683L2.18383 6.90302L7.00002 11.7192L11.8162 6.90302L12.4724 6.24683C12.7887 5.93065 13.0397 5.55524 13.2109 5.14205C13.3821 4.72886 13.4702 4.28599 13.4702 3.83874C13.4702 3.39149 13.3821 2.94862 13.2109 2.53543C13.0397 2.12224 12.7887 1.74684 12.4724 1.43065Z" fill="#FE724C"/>
</svg>
