<svg width="19" height="16" viewBox="0 0 19 16" fill="none" xmlns="http://www.w3.org/2000/svg">
<path d="M9.60188 15.261C9.557 15.2866 9.51597 15.3097 9.47905 15.3303C9.44212 15.3097 9.40108 15.2865 9.35619 15.2609C9.12698 15.1302 8.79765 14.9355 8.40162 14.6817C7.60854 14.1735 6.55318 13.4318 5.50012 12.4968C3.37175 10.607 1.35728 8.02099 1.3573 5.04796L1.35726 5.04372C1.34771 3.91892 1.77216 2.83375 2.54232 2.01392C3.30939 1.19738 4.3606 0.706692 5.47877 0.642843C6.20263 0.645162 6.91308 0.838925 7.53798 1.20458C8.16676 1.5725 8.68625 2.10118 9.04308 2.7363L9.479 3.51217L9.91491 2.7363C10.2717 2.10133 10.791 1.57274 11.4196 1.20484C12.0443 0.839193 12.7545 0.645345 13.4782 0.642847C14.5965 0.706443 15.648 1.19702 16.4153 2.01359C17.1857 2.83344 17.6103 3.91876 17.6007 5.04372H17.6007V5.04796C17.6007 8.02216 15.5862 10.6081 13.4579 12.4976C12.4049 13.4325 11.3495 14.174 10.5564 14.682C10.1604 14.9357 9.83109 15.1303 9.60188 15.261Z" stroke="#FE724C"/>
</svg>
