<svg width="17" height="17" viewBox="0 0 17 17" fill="none" xmlns="http://www.w3.org/2000/svg">
<path d="M15.7526 7.09683C15.6738 6.41663 15.3484 5.7855 14.8345 5.3158C14.3206 4.84609 13.6515 4.56825 12.946 4.5316V4.33165C12.9466 3.76273 12.8312 3.19936 12.6063 2.67378C12.3815 2.1482 12.0517 1.6708 11.6359 1.26911C11.2209 0.866206 10.7278 0.546718 10.1851 0.328924C9.6423 0.111129 9.0605 -0.000662074 8.47301 2.94969e-06C7.2871 0.000423414 6.14992 0.456995 5.31135 1.2694C4.47278 2.08181 4.00151 3.1836 4.00107 4.33252V4.53469C3.30495 4.58262 2.64802 4.86536 2.1447 5.33371C1.64137 5.80206 1.32348 6.42645 1.24599 7.09838L0.5 13.682C0.503685 14.5648 0.868802 15.41 1.51524 16.0321C2.16168 16.6542 3.03674 17.0023 3.9479 17H13.0523C13.9635 17.0023 14.8383 16.6542 15.4848 16.0321C16.1312 15.41 16.4963 14.5648 16.5 13.682L15.7526 7.09683ZM5.31435 4.33959C5.31424 3.93776 5.39577 3.53984 5.55442 3.16856C5.71307 2.79729 5.94579 2.45997 6.23904 2.1758C6.53229 1.89162 6.88029 1.66614 7.26348 1.51234C7.64667 1.35854 8.05744 1.27947 8.47222 1.27947C8.88708 1.27909 9.29786 1.35804 9.68115 1.51186C10.0644 1.66567 10.4127 1.89122 10.7058 2.1757C10.9996 2.45956 11.2325 2.79684 11.3914 3.16818C11.5503 3.53951 11.632 3.93761 11.6317 4.33959V4.52521H5.31435V4.33959ZM5.93741 8.84029C5.83319 8.8404 5.72988 8.82059 5.63358 8.782C5.53727 8.74341 5.44981 8.68676 5.37612 8.61536C5.30243 8.54397 5.24404 8.45924 5.20421 8.36594C5.16438 8.27264 5.14394 8.17265 5.14405 8.07168C5.14394 7.97072 5.16438 7.87072 5.20421 7.77742C5.24404 7.68412 5.30243 7.5993 5.37612 7.5279C5.44981 7.45651 5.53727 7.39995 5.63358 7.36136C5.72988 7.32277 5.83319 7.30297 5.93741 7.30307C6.04177 7.30286 6.14515 7.32255 6.24164 7.36107C6.33813 7.39959 6.42579 7.45613 6.4997 7.52751C6.57361 7.5989 6.63234 7.68368 6.67241 7.77704C6.71247 7.8704 6.73306 7.97057 6.73317 8.07168C6.73306 8.17279 6.71247 8.27287 6.67241 8.36623C6.63234 8.45959 6.57361 8.54437 6.4997 8.61575C6.42579 8.68713 6.33813 8.74367 6.24164 8.7822C6.14515 8.82072 6.04177 8.8405 5.93741 8.84029ZM11.0644 8.84029C10.96 8.8405 10.8566 8.82072 10.7602 8.7822C10.6637 8.74367 10.576 8.68713 10.5021 8.61575C10.4282 8.54437 10.3695 8.45959 10.3294 8.36623C10.2893 8.27287 10.2687 8.17279 10.2686 8.07168C10.2687 7.97057 10.2893 7.8704 10.3294 7.77704C10.3695 7.68368 10.4282 7.5989 10.5021 7.52751C10.576 7.45613 10.6637 7.39959 10.7602 7.36107C10.8566 7.32255 10.96 7.30286 11.0644 7.30307C11.1686 7.30297 11.2717 7.32277 11.368 7.36136C11.4643 7.39995 11.552 7.45651 11.6257 7.5279C11.6994 7.5993 11.7578 7.68412 11.7976 7.77742C11.8374 7.87072 11.8579 7.97072 11.8578 8.07168C11.8579 8.17265 11.8374 8.27264 11.7976 8.36594C11.7578 8.45924 11.6994 8.54397 11.6257 8.61536C11.552 8.68676 11.4643 8.74341 11.368 8.782C11.2717 8.82059 11.1686 8.8404 11.0644 8.84029Z" fill="#FE724C"/>
</svg>
