<svg width="14" height="14" viewBox="0 0 14 14" fill="none" xmlns="http://www.w3.org/2000/svg">
<path d="M13.6562 6.14887L10.8375 8.60887L11.6819 12.2714C11.7266 12.4628 11.7138 12.6632 11.6452 12.8475C11.5766 13.0317 11.4552 13.1917 11.2962 13.3073C11.1372 13.423 10.9477 13.4892 10.7513 13.4977C10.5548 13.5062 10.3603 13.4566 10.1919 13.3551L6.9975 11.4176L3.81 13.3551C3.6416 13.4566 3.44703 13.5062 3.2506 13.4977C3.05418 13.4892 2.86462 13.423 2.70562 13.3073C2.54662 13.1917 2.42524 13.0317 2.35665 12.8475C2.28806 12.6632 2.27531 12.4628 2.32 12.2714L3.16312 8.61262L0.343746 6.14887C0.194626 6.02026 0.086797 5.85048 0.0337805 5.66084C-0.0192359 5.47119 -0.0150796 5.27011 0.0457281 5.08281C0.106536 4.89552 0.221288 4.73034 0.375594 4.608C0.529901 4.48567 0.716893 4.41161 0.913121 4.39512L4.62937 4.07324L6.08 0.613244C6.15575 0.431692 6.28353 0.276612 6.44724 0.16753C6.61095 0.0584492 6.80327 0.000244141 7 0.000244141C7.19672 0.000244141 7.38904 0.0584492 7.55275 0.16753C7.71647 0.276612 7.84424 0.431692 7.92 0.613244L9.375 4.07324L13.09 4.39512C13.2862 4.41161 13.4732 4.48567 13.6275 4.608C13.7818 4.73034 13.8966 4.89552 13.9574 5.08281C14.0182 5.27011 14.0224 5.47119 13.9693 5.66084C13.9163 5.85048 13.8085 6.02026 13.6594 6.14887H13.6562Z" fill="#FFC529"/>
</svg>
